# xmcd CD database file
#
# Track frame offsets:
#	150
#	5140
#	47024
#	96285
#	134577
#	157522
#	167337
#	171899
#	178665
#	201930
#	230625
#	238632
#	270637
#	290936
#	306955
#
# Disc length: 4415 seconds
#
# Revision: 0
# Processed by: cddbd v1.5.2PL0 Copyright (c) Steve Scherf et al.
# Submitted via: CDex 1.51
#
DISCID=d3113d0f
DTITLE=Abraham-Hicks - Bodily Conditions
DYEAR=1988
DGENRE=New Age
TTITLE0=Abraham-Hicks Publications
TTITLE1=To Feel Good In Your Body
TTITLE2=Fifteen Minutes to Well-Being
TTITLE3=Why Do You Want Perfect Health
TTITLE4=Heath, Wealth, and Happiness
TTITLE5=To Heal a Physical Trauma
TTITLE6=But When a Baby Has a Disease
TTITLE7=What About "Incurable" Diseases
TTITLE8=Focus on Fun to Regain Health
TTITLE9=Faith, Medical and Witch Doctors
TTITLE10=Genetics and Inherited Diseases
TTITLE11=The Media's Role in Epidemics
TTITLE12=But if I Believe in Germs
TTITLE13=The Main Causes of Illness
TTITLE14=To Control One's Body Weight
EXTD=YEAR: 1988
EXTT0=
EXTT1=
EXTT2=
EXTT3=
EXTT4=
EXTT5=
EXTT6=
EXTT7=
EXTT8=
EXTT9=
EXTT10=
EXTT11=
EXTT12=
EXTT13=
EXTT14=
PLAYORDER=
